# xmcd
#
# Track frame offsets:
#	150
#	9939
#	18233
#	31186
#	41282
#	53943
#	65011
#	77752
#	89357
#	100123
#	115748
#	125574
#	135296
#	150580
#	163752
#	177198
#	186922
#	198979
#	209865
#	223494
#	238635
#	252452
#	265557
#	275161
#	285763
#	295136
#	306997
#
# Disc length: 4256 seconds
#
# Revision: 0
# Processed by: cddbd v1.5.2PL0 Copyright (c) Steve Scherf et al.
# Submitted via: EasyCDDAExtractor 8.2.3.1
#
DISCID=83109e1b
DTITLE=Bass Mountain Boys - Carolina Calling Me -91 and 18 Wheels -92
DYEAR=1992
DGENRE=Bluegrass
TTITLE0=Handsome Molly
TTITLE1=Georgie Buck
TTITLE2=The Dying Soldier
TTITLE3=On The Run
TTITLE4=Slippin' Away
TTITLE5=Just A Memory Away
TTITLE6=Water's So Cold
TTITLE7=Carolina Calling Me
TTITLE8=My Little Home In Tennessee
TTITLE9=One Way Mind
TTITLE10=Black MTN Rag
TTITLE11=You Can't Judge A Book By It's Cover
TTITLE12=Gospel Medley
TTITLE13=Eighteen Wheels
TTITLE14=She's Loving Me Blind
TTITLE15=Everybody Laugh With Me
TTITLE16=These Bars Are So Cold
TTITLE17=East Tennessee (I'm Headed Back)
TTITLE18=He Will Open the Gate
TTITLE19=Where Honky-Tonk Angels Spread Their Wings
TTITLE20=Carolina Moon
TTITLE21=I'm Leaving Here
TTITLE22=My  My  My
TTITLE23=A Special Kind Of Breed
TTITLE24=Take Me In Chains
TTITLE25=The Southland Is Calling Me
TTITLE26=I've Lived A Lot In My Time
EXTD=
EXTT0=
EXTT1=
EXTT2=
EXTT3=
EXTT4=
EXTT5=
EXTT6=
EXTT7=
EXTT8=
EXTT9=
EXTT10=
EXTT11=
EXTT12=
EXTT13=
EXTT14=
EXTT15=
EXTT16=
EXTT17=
EXTT18=
EXTT19=
EXTT20=
EXTT21=
EXTT22=
EXTT23=
EXTT24=
EXTT25=
EXTT26=
PLAYORDER=
